<svg xmlns="http://www.w3.org/2000/svg" viewBox="0 0 291.04 100.45"><defs><style>.cls-1{fill:#911a1d;}.cls-2{fill:#0082cb;}.cls-3{fill:#fff;}</style></defs><g id="Layer_2" data-name="Layer 2"><g id="Layer_1-2" data-name="Layer 1"><polygon class="cls-1" points="215.83 44.79 215.53 44.87 207.65 62.41 202.85 48.17 202.62 48.24 202.1 48.37 201.8 48.45 198.51 67.62 199.29 67.62 202.43 49.34 207.19 63.45 205.31 67.62 206.16 67.62 207.55 64.53 208.59 67.62 209.41 67.62 208.02 63.49 215.83 46.1 215.83 44.79"/><polygon class="cls-1" points="201.57 11.56 215.83 7.84 215.83 7.64 215.83 0 188.32 11.32 201.67 13.66 201.67 11.93 201.57 11.56"/><polygon class="cls-1" points="201.68 32.14 201.68 32.14 200.31 32.5 200.31 48.04 215.83 44 215.83 42.49 215.83 28.45 213.86 28.97 201.68 32.14"/><polygon class="cls-1" points="202.45 12.13 202.45 13.79 202.45 14.19 202.45 14.58 202.45 31.14 215.83 27.66 215.83 27.45 215.83 17.06 215.83 16.93 215.83 16.53 215.83 16.14 215.83 8.64 202.45 12.13"/><polygon class="cls-2" points="215.83 44.79 216.21 44.69 215.83 44.59 215.83 44.79"/><polygon class="cls-2" points="230.63 48.45 230.32 48.37 229.81 48.24 229.57 48.17 224.77 62.41 216.9 44.87 216.6 44.79 216.21 44.69 215.83 44.79 215.83 46.1 215.83 67.62 216.6 67.62 216.6 46.1 224.41 63.49 223.02 67.62 223.83 67.62 224.88 64.53 226.27 67.62 227.11 67.62 225.24 63.45 230 49.34 233.13 67.62 233.92 67.62 230.63 48.45"/><polygon class="cls-2" points="216.6 0 216.6 7.64 216.6 7.84 230.85 11.56 230.75 11.97 230.75 13.66 244.1 11.32 216.6 0"/><polygon class="cls-2" points="216.6 42.49 216.6 44 232.12 48.04 232.12 32.5 230.75 32.14 230.75 32.14 219.28 29.16 216.6 28.45 216.6 42.49"/><polygon class="cls-3" points="216.21 43.35 216.21 43.35 216.21 43.35 216.21 43.35"/><path class="cls-3" d="M216.6,44.4l.09,0-.09-.21Z"/><polygon class="cls-2" points="216.6 8.64 216.6 16.14 216.6 16.53 216.6 16.93 216.6 17.06 216.6 27.45 216.6 27.66 224.9 29.82 229.97 31.14 229.97 14.58 229.97 14.19 229.97 13.79 229.97 12.13 216.6 8.64"/><polygon class="cls-3" points="215.83 17.06 216.21 16.99 215.83 16.93 215.83 17.06"/><polygon class="cls-3" points="216.21 16.99 216.21 16.6 215.83 16.53 215.83 16.93 216.21 16.99"/><polygon class="cls-3" points="216.6 17.06 216.6 16.93 216.21 16.99 216.6 17.06"/><polygon class="cls-3" points="216.21 16.99 216.6 16.93 216.6 16.53 216.21 16.6 216.21 16.99 216.21 16.99"/><path class="cls-2" d="M29.87,100H25.34l-6.05-18-5.8,18H8.87L0,71.93V70.74H5.92l5.15,16.43,6-16.43h4.33l6,17.16L32.2,70.74h5.93v1.19Z"/><path class="cls-2" d="M58.46,97.3a4.63,4.63,0,0,1-.94,1.07,9.26,9.26,0,0,1-6.29,2c-5.19,0-10.87-3.6-10.87-9.89,0-7.27,5.31-10.09,11-10.09A33.37,33.37,0,0,1,56.3,81c.32,0,.49.12.9.16v-.37c0-3.63-2.33-4.78-6-4.78-2.37,0-5.68,1.31-7.68,2.37l-2-4.94c1.43-1.39,6.38-3.27,9.85-3.27,7.28,0,12.06,3.19,12.18,10.67v9.64c0,1.43,0,2.74.74,3.51.36.5,1.06.62,2,0l1.35,4.62a5.52,5.52,0,0,1-3.93,1.72C61.49,100.37,59.12,99.18,58.46,97.3Zm-1.26-11A35.87,35.87,0,0,0,52,85.62c-3.4,0-5.15,1.71-5.15,4.49s1.75,4.46,4.7,4.46a8.1,8.1,0,0,0,5.8-2A9.56,9.56,0,0,1,57.24,91Z"/><path class="cls-2" d="M89.74,95.71A10.12,10.12,0,0,1,81.61,100a6.77,6.77,0,0,1-5.07-2.25A14.27,14.27,0,0,1,73,88.6V77.16H68.74V70.74H73V65.55l6.45-3.07v8.26h9.28v6.42H79.4v10.5a6.48,6.48,0,0,0,1.27,4.09v0a2.57,2.57,0,0,0,2,.66,5.83,5.83,0,0,0,4.34-2.13l2.69,5.07Z"/><path class="cls-2" d="M114.85,96a15.91,15.91,0,0,1-10.42,4.37c-6,0-12.75-5.07-12.75-14.84,0-10.25,6.74-15.24,12.75-15.24,3.39,0,7.84,1.19,10.42,3.84L112,80.06a10.13,10.13,0,0,0-7.2-3c-3.8,0-6.45,3.77-6.45,8.38,0,4.46,2.65,7.93,6.45,7.93a10.71,10.71,0,0,0,7.16-2.7Z"/><path class="cls-2" d="M126,73.6a9.21,9.21,0,0,1,7.15-3.35c5.76,0,9.64,4.45,9.64,10.38V100h-6.62V81.9c0-2.17-.57-4.83-3.63-4.83-2.25,0-4.91,2.5-6.54,4.42V100h-6.7V60.65H126Z"/><path class="cls-1" d="M167,95.71a10.15,10.15,0,0,1-8.14,4.25,6.78,6.78,0,0,1-5.07-2.25,14.27,14.27,0,0,1-3.59-9.11V77.16H146V70.74h4.21V65.55l6.46-3.07v8.26H166v6.42h-9.27v10.5A6.54,6.54,0,0,0,158,91.75v0a2.59,2.59,0,0,0,2.05.66,5.83,5.83,0,0,0,4.33-2.13L167,95.3Z"/><path class="cls-1" d="M182.24,100.37c-6.33,0-13.2-5.07-13.2-14.84,0-10.17,6.87-15.16,13.2-15.16s13.12,5.44,13.12,15.16S188.66,100.37,182.24,100.37Zm0-23.3c-4,0-6.83,3.6-6.83,8.3,0,4.54,2.82,8.09,6.83,8.09S189,90,189,85.37,186.37,77.07,182.24,77.07Z"/><path class="cls-1" d="M227.46,100h-4.54l-6-18-5.8,18h-4.62l-8.87-28V70.74h5.93l5.15,16.43,6-16.43H219l6,17.16,4.87-17.16h5.92v1.19Z"/><path class="cls-1" d="M263.48,81.16a23.19,23.19,0,0,1,.33,4.25c0,.86,0,2-.08,2.78h-19c.2,2.53,3.31,5.72,6.9,5.72a14.39,14.39,0,0,0,8.46-2.65l2.49,5.35c-2,2.12-6.86,3.84-11.11,3.84-6.58,0-13.69-5.07-13.69-15,0-10.17,6.91-15.24,13.36-15.24C258.54,70.25,262.22,75.28,263.48,81.16Zm-6.09,1.23a6,6,0,0,0-6.21-5.81c-2.94,0-5.23,2.13-6.13,5.81Z"/><path class="cls-1" d="M284.26,100l-7-11.4h-2.9V100h-6.58V70.7h13.77c5.48,0,8.67,3.43,8.67,8.66A9.67,9.67,0,0,1,284.06,88l7,11.07V100Zm-3.8-23.58h-6.09v6.29h5.8a3.46,3.46,0,0,0,3.52-3.22A2.93,2.93,0,0,0,280.46,76.38Z"/></g></g></svg>